# Blender 3.5.1
# www.blender.org
mtllib baleine_medium.mtl
o whaleSonic.001
v -0.027905 -0.005885 0.114486
v -0.019764 0.019917 0.121927
v -0.009577 -0.017581 0.126627
v 0.027935 -0.006846 0.114375
v -0.009458 0.024066 0.109354
v 0.009752 -0.017668 0.126079
v 0.009413 0.024079 0.109510
v 0.019881 0.019851 0.121528
v 0.023136 -0.028033 0.039612
v 0.031073 -0.010975 0.064785
v 0.031264 -0.004762 0.064229
v 0.023065 0.024266 0.048425
v 0.020506 -0.024157 -0.000162
v 0.027029 -0.012123 -0.000162
v 0.027029 0.007727 -0.000162
v 0.017431 0.020620 -0.034711
v 0.000020 -0.009750 -0.155441
v 0.000083 -0.007249 -0.155686
v -0.020506 -0.024157 -0.000162
v -0.027029 -0.012123 -0.000162
v -0.027029 0.007727 -0.000162
v -0.017699 0.020414 -0.035130
v -0.023136 -0.028033 0.039612
v -0.031073 -0.010975 0.064785
v -0.031261 -0.004698 0.064208
v -0.023505 0.024008 0.048280
v -0.010258 0.032962 0.049105
v -0.000000 0.031223 -0.009777
v 0.010258 0.032962 0.049105
v -0.009925 -0.031440 -0.000162
v -0.010013 -0.034992 0.049133
v 0.009925 -0.031440 -0.000162
v 0.009978 -0.035073 0.046800
v -0.009344 0.002111 0.180674
v -0.009647 0.006584 0.184781
v 0.009256 0.001975 0.180664
v 0.009265 0.006687 0.185299
v -0.010560 0.008719 0.182305
v -0.009497 0.013883 0.182310
v -0.004776 0.009177 0.186862
v -0.003754 0.010501 0.187386
v 0.004776 0.009177 0.186862
v 0.007112 0.013074 0.184694
v 0.010617 0.008733 0.182207
v 0.019014 0.017698 0.154170
v 0.026482 -0.003969 0.121166
v -0.026775 -0.003928 0.121120
v 0.027005 -0.002431 0.120905
v 0.006630 0.026335 0.124118
v -0.019303 -0.010584 0.129463
v -0.024432 0.009941 0.140854
v 0.019303 -0.010584 0.129463
v 0.024647 0.009911 0.139753
v -0.023819 0.011418 0.142252
v -0.017478 0.019226 0.149846
v 0.008277 0.011314 0.145229
v -0.025046 0.004569 0.126327
v 0.025133 0.004789 0.126343
v -0.025133 0.005732 0.125793
v 0.025201 0.005707 0.125796
v -0.007185 0.007351 0.184070
v 0.007185 0.007351 0.184070
v 0.024490 0.010682 0.139023
v 0.007185 0.007351 0.184070
v 0.007185 0.007351 0.184070
v -0.007185 0.007351 0.184070
v -0.000321 -0.005709 0.178883
v -0.007405 -0.003087 0.170233
v 0.007405 -0.003087 0.170233
v 0.028924 -0.004948 0.093481
v 0.029138 -0.012025 0.093627
v 0.009463 -0.028568 0.095492
v 0.021539 -0.020404 0.095492
v -0.029030 -0.012483 0.093643
v -0.021539 -0.020404 0.095492
v -0.009464 -0.028568 0.095492
v 0.017794 -0.004541 -0.060033
v 0.014791 -0.013332 -0.050529
v 0.017623 0.005549 -0.060956
v -0.017402 -0.004597 -0.062349
v -0.014737 -0.013246 -0.051286
v -0.017619 0.004550 -0.062419
v -0.000686 0.025566 -0.042009
v 0.001548 0.022964 -0.047680
v -0.006894 -0.018066 -0.054229
v 0.006851 -0.017660 -0.056487
v -0.002381 -0.011900 -0.121427
v -0.004016 -0.007267 -0.125842
v 0.002586 -0.011390 -0.122607
v 0.004054 -0.007543 -0.125837
v 0.003126 -0.006796 -0.127271
v 0.000000 -0.004073 -0.123491
v -0.000007 0.034401 -0.024666
v -0.000000 0.036509 -0.042340
v 0.000405 0.029312 -0.040560
v -0.028805 -0.005720 0.093580
v 0.060628 -0.010336 -0.172301
v 0.002906 -0.008213 -0.162362
v -0.002906 -0.008213 -0.162362
v -0.060636 -0.010354 -0.172315
v 0.048451 -0.007923 -0.146496
v -0.048489 -0.007932 -0.146552
v -0.046090 -0.020634 0.077285
v -0.046090 -0.016639 0.077285
v 0.046090 -0.016639 0.077285
v 0.062942 -0.030372 0.058129
v -0.041749 -0.012906 0.051204
v -0.041749 -0.016469 0.051204
v 0.041749 -0.016469 0.051204
v 0.041749 -0.012906 0.051204
v -0.073986 -0.035376 0.022309
v -0.076969 -0.036697 0.024049
v 0.076456 -0.038120 0.023099
v 0.073996 -0.032782 0.022307
v 0.077067 -0.034925 0.024091
v 0.065995 -0.028463 0.052434
v -0.066073 -0.030346 0.052286
v -0.046090 -0.016639 0.077285
v -0.046090 -0.020634 0.077285
v -0.041749 -0.016469 0.051204
v -0.041749 -0.012906 0.051204
v 0.041749 -0.012906 0.051204
v 0.041749 -0.016469 0.051204
v -0.066002 -0.027842 0.029470
v 0.066002 -0.031404 0.029470
v -0.006779 0.026884 0.124667
v -0.003470 -0.000489 0.184689
v 0.003568 -0.000538 0.184594
vn 0.6877 0.6742 0.2693
vn 0.1931 0.9809 0.0215
vn 0.3956 0.6357 0.6628
vn -0.4845 0.0126 0.8747
vn -0.1782 -0.6291 0.7567
vn -0.7234 -0.5027 -0.4732
vn 0.8206 -0.2241 0.5258
vn 0.9485 0.2698 -0.1658
vn 0.6495 0.7219 -0.2390
vn -0.3417 -0.4817 0.8070
vn 0.0070 -0.9632 0.2686
vn 0.2314 -0.5689 0.7892
vn 0.5690 0.4239 0.7047
vn 0.7576 -0.5511 0.3498
vn 0.8492 -0.4043 0.3397
vn 0.1285 -0.3088 0.9424
vn 0.9441 0.2838 0.1677
vn 0.9664 0.2567 0.0158
vn 0.8154 -0.5138 0.2668
vn 0.9433 0.2385 -0.2308
vn 0.6988 0.6910 -0.1850
vn 0.9722 0.2172 -0.0880
vn -0.9611 0.2764 -0.0023
vn -0.9613 0.2051 -0.1839
vn -0.9624 -0.2323 0.1407
vn -0.1924 0.9811 0.0184
vn -0.5260 0.8504 0.0098
vn -0.7415 0.6710 0.0077
vn 0.5268 0.8499 0.0096
vn 0.1940 0.9808 0.0199
vn 0.7228 0.6905 0.0277
vn 0.3006 0.9532 0.0335
vn -0.0116 0.9960 -0.0884
vn -0.3034 0.9521 0.0366
vn -0.5272 0.7612 -0.3777
vn -0.7150 0.6744 -0.1842
vn 0.2454 0.9105 -0.3329
vn 0.7752 -0.3700 0.5120
vn -0.0778 0.5113 0.8559
vn 0.7308 -0.5884 0.3459
vn -0.7497 0.5417 -0.3801
vn 0.9331 0.3537 -0.0654
vn 0.0004 0.8018 -0.5976
vn -0.9288 0.3635 -0.0714
vn 0.8984 -0.2655 0.3499
vn -0.7649 -0.5375 0.3550
vn -0.5653 0.7861 0.2501
vn -0.1330 0.9891 0.0624
vn -0.8176 -0.4049 0.4094
vn -0.8938 -0.3832 0.2331
vn -0.3108 -0.7141 0.6272
vn -0.2228 -0.4456 0.8671
vn 0.3018 -0.3503 0.8867
vn -0.0000 -0.3543 0.9351
vn -0.0000 -0.0000 1.0000
vn 0.2286 -0.4021 0.8866
vn -0.5625 0.4156 0.7148
vn 0.3074 -0.9337 0.1836
vn -0.3084 -0.9346 0.1771
vn 0.8747 0.4727 -0.1074
vn 0.9582 0.2861 0.0005
vn 0.9582 -0.2303 -0.1699
vn 0.9974 0.0131 -0.0709
vn -0.0396 0.9572 -0.2867
vn -0.9506 -0.2490 -0.1854
vn -0.9540 0.2069 -0.2169
vn -0.9579 0.2410 -0.1559
vn -0.0121 0.7289 -0.6846
vn 0.9800 0.0295 -0.1968
vn 0.8747 -0.0693 -0.4796
vn -0.4990 0.3556 0.7903
vn 0.0141 -0.4905 0.8713
vn 0.5536 -0.8232 -0.1260
vn -0.0055 -0.9788 -0.2046
vn 0.1135 0.9431 -0.3124
vn 0.4222 0.9060 -0.0310
vn -0.4028 0.1208 -0.9073
vn 0.4287 0.0724 -0.9005
vn 0.3508 -0.9330 0.0800
vn -0.5729 -0.4746 0.6683
vn -0.7811 -0.0000 0.6244
vn 0.8411 0.1784 0.5106
vn 0.8102 0.2647 0.5230
vn 0.9835 -0.1556 -0.0921
vn -0.5312 0.3584 0.7677
vn 0.8564 -0.5162 0.0089
vn 0.0547 0.8650 0.4987
vn -0.5682 0.6519 0.5022
vn -0.1753 0.2788 0.9442
vn -0.0231 -0.9996 -0.0173
vn -0.0000 -0.4709 0.8822
vn 0.0759 0.9583 0.2756
vn 0.5249 0.8169 0.2390
vn -0.9963 0.0816 -0.0273
vn 0.9895 0.0096 -0.1443
vn -0.7692 0.0578 0.6363
vn 0.3914 -0.7194 0.5738
vn 0.5084 -0.8581 -0.0719
vn -0.7591 -0.6491 0.0495
vn -0.4830 0.4285 0.7636
vn -0.6022 0.7968 0.0488
vn -0.6172 0.7848 0.0555
vn 0.3276 -0.9020 -0.2813
vn -0.7138 -0.6936 -0.0973
vn 0.4222 0.6515 0.6303
vn 0.5383 0.8424 0.0267
vn 0.5359 0.8439 0.0243
vn 0.4314 -0.6794 0.5936
vn 0.4798 -0.8774 -0.0075
vn 0.1164 0.9317 0.3441
vn 0.0222 0.7575 -0.6525
vn -0.5721 0.8189 0.0464
vn -0.8166 -0.4833 -0.3154
vn -0.6486 0.7563 0.0863
vn -0.4012 0.4795 -0.7804
vn -0.6607 -0.6387 -0.3944
vn 0.7318 -0.6815 -0.0013
vn 0.9612 -0.2414 -0.1334
vn 0.7330 -0.6514 -0.1958
vn -0.9602 -0.2403 -0.1421
vn -0.7202 -0.6934 -0.0228
vn -0.3239 -0.8989 -0.2951
vn -0.4743 -0.8713 -0.1260
vn -0.9717 0.2113 -0.1056
vn -0.2877 -0.9424 -0.1707
vn -0.2622 -0.9635 0.0533
vn 0.2574 -0.9655 0.0401
vn 0.2866 -0.9423 -0.1731
vn -0.7212 -0.6135 0.3216
vn -0.8149 -0.4318 0.3866
vn 0.7054 -0.6265 0.3316
vn -0.0174 -0.8376 0.5461
vn 0.7578 0.5439 -0.3604
vn -0.7937 0.6063 0.0494
vn -0.2659 -0.9132 0.3089
vn 0.9052 -0.3504 0.2406
vn -0.0038 0.9860 -0.1667
vn 0.8816 -0.4024 0.2467
vn 0.1309 -0.4511 0.8828
vn -0.3263 -0.7253 0.6061
vn 0.6491 -0.7415 0.1699
vn -0.6477 -0.7416 0.1747
vn 0.2855 -0.9311 0.2269
vn -0.2826 -0.9335 0.2208
vn 0.2693 -0.9097 0.3162
vn -0.7306 -0.6544 -0.1950
vn -0.7284 -0.6624 -0.1751
vn -0.2923 -0.9399 -0.1766
vn 0.2980 -0.9416 -0.1567
vn -0.6926 0.0038 0.7213
vn -0.6953 0.0274 0.7182
vn -0.6956 0.0299 0.7178
vn -0.7665 0.4134 -0.4916
vn -0.7873 -0.6159 0.0294
vn 0.7865 -0.0056 -0.6175
vn 0.7862 -0.0000 -0.6180
vn -0.7865 -0.0052 -0.6175
vn -0.7862 -0.0000 -0.6180
vn 0.6059 0.7948 0.0348
vn 0.6212 0.7836 0.0074
vn 0.9221 -0.0318 -0.3857
vn 0.6483 -0.2101 0.7318
vn -0.8490 -0.0521 -0.5258
vn 0.6674 -0.0000 -0.7447
vn -0.6674 -0.0000 -0.7447
vn -0.6587 -0.3451 -0.6686
vn 0.9771 0.2126 -0.0124
vn -0.5629 -0.8263 0.0174
vn -0.6811 0.7273 0.0849
vn 0.5259 0.8504 0.0170
vn -0.2135 -0.2956 0.9312
vn 0.0002 -0.0019 1.0000
vn 0.7297 -0.6619 -0.1718
vn -0.6921 -0.0000 0.7218
vt 0.699524 0.196991
vt 0.152951 0.773269
vt 0.730043 0.162003
vt 0.676260 0.209868
vt 0.645273 0.199289
vt 0.114804 0.732261
vt 0.665933 0.210295
vt 0.053240 0.733767
vt 0.016717 0.774725
vt 0.611645 0.162915
vt 0.632755 0.312215
vt 0.615325 0.258649
vt 0.604381 0.255519
vt 0.539570 0.268353
vt -0.000056 0.539786
vt 0.623859 0.387392
vt 0.593835 0.386397
vt 0.548246 0.382899
vt 0.504951 0.477204
vt 0.028484 0.303273
vt 0.675180 0.872038
vt 0.069025 0.000114
vt 0.675557 0.873004
vt 0.719498 0.386931
vt 0.749414 0.385830
vt 0.794876 0.382164
vt 0.838556 0.477062
vt 0.122884 0.298393
vt 0.710204 0.311988
vt 0.727376 0.258468
vt 0.738322 0.255346
vt 0.803208 0.267942
vt 0.159311 0.535003
vt 0.110258 0.538708
vt 0.076619 0.359743
vt 0.048820 0.541635
vt 0.692776 0.387450
vt 0.686216 0.299386
vt 0.650706 0.387824
vt 0.656422 0.303191
vt 0.671696 0.194546
vt 0.671566 0.192671
vt 0.670621 0.195137
vt 0.670392 0.194250
vt 0.683095 0.094314
vt 0.118864 0.980449
vt 0.687334 0.090218
vt 0.677271 0.088414
vt 0.103989 0.998915
vt 0.676617 0.085626
vt 0.664328 0.088421
vt 0.065889 0.991593
vt 0.658176 0.087512
vt 0.658537 0.094546
vt 0.029100 0.885304
vt 0.633976 0.124471
vt 0.655874 0.198640
vt 0.686560 0.198619
vt 0.640468 0.185165
vt 0.057993 0.782213
vt 0.680392 0.203858
vt 0.675524 0.197505
vt 0.661904 0.203936
vt 0.666425 0.197600
vt 0.702125 0.143868
vt 0.153343 0.851463
vt 0.713798 0.135465
vt 0.660485 0.140631
vt 0.680113 0.197541
vt 0.662102 0.197660
vt 0.705251 0.170194
vt 0.636770 0.170441
vt 0.679263 0.092282
vt 0.662441 0.092365
vt 0.638844 0.148744
vt 0.662152 0.092373
vt 0.662382 0.092479
vt 0.679328 0.092414
vt 0.671186 0.195308
vt 0.671789 0.196340
vt 0.670500 0.196532
vt 0.618214 0.228751
vt 0.626853 0.233965
vt 0.660796 0.238903
vt 0.644357 0.234770
vt 0.714883 0.233135
vt 0.698168 0.234598
vt 0.681748 0.238859
vt 0.584312 0.562812
vt 0.616519 0.527190
vt 0.547534 0.566739
vt 0.758905 0.570451
vt 0.727195 0.529307
vt 0.794570 0.572571
vt 0.838906 0.117282
vt 0.077536 0.290887
vt 0.070087 0.278555
vt 0.695697 0.540397
vt 0.648241 0.549371
vt 0.683885 0.827292
vt 0.074287 0.045867
vt 0.687926 0.863821
vt 0.666668 0.840120
vt 0.663543 0.866227
vt 0.053308 0.050737
vt 0.656898 0.865997
vt 0.064307 0.051458
vt 0.075757 0.317558
vt 0.839656 0.103578
vt 0.075904 0.302381
vt 0.840405 0.117282
vt 0.075361 0.301306
vt 0.724209 0.229978
vt 0.671746 0.896222
vt 0.673494 0.874930
vt 0.677195 0.871232
vt 0.679377 0.869441
vt 0.671364 0.886557
vt 0.679751 0.869211
vt 0.729147 0.250674
vt 0.726752 0.250691
vt 0.615714 0.250676
vt 0.612028 0.253347
vt 0.730161 0.254704
vt 0.730426 0.255098
vt 0.612485 0.254380
vt 0.612292 0.254962
vt 0.729538 0.255234
vt 0.729542 0.255244
vt 0.611746 0.254667
vt 0.611758 0.254653
vt 0.611762 0.254674
vt 0.612440 0.254370
vt 0.729503 0.254818
vt 0.728429 0.249564
vt 0.730314 0.249146
vt 0.729404 0.254435
vt 0.729897 0.254613
vt 0.612246 0.253589
vt 0.612370 0.254117
vt 0.729470 0.255201
vt 0.611778 0.254558
vt 0.108264 0.779852
vt 0.671474 0.193667
vt 0.670971 0.194365
s 1
usemtl Plastic_Pearl_Colored_Procedural
f 45/55/1 49/60/2 43/52/3
f 109/126/4 123/140/5 125/142/6
f 116/133/7 115/132/8 114/131/9
f 127/144/10 67/79/11 128/145/12
f 37/44/13 128/145/12 36/43/14
f 44/54/15 43/53/3 42/51/16
f 70/82/17 4/5/18 71/83/19
f 79/91/20 16/19/21 15/18/22
f 26/32/23 25/31/24 1/1/25
f 5/6/26 26/33/27 2/2/28
f 12/15/29 7/8/30 8/9/31
f 29/36/32 28/35/33 27/34/34
f 83/96/35 22/28/36 28/35/33
f 16/20/21 84/97/37 28/35/33
f 48/59/38 1/1/39 4/5/40
f 8/10/31 48/59/38 4/5/18
f 57/69/41 46/57/42 47/58/43
f 59/71/44 2/3/28 1/1/25
f 8/10/31 60/72/45 48/59/38
f 127/144/10 34/41/46 67/79/11
f 36/43/14 128/145/12 67/79/11
f 2/2/28 55/66/47 126/143/48
f 38/45/49 54/65/50 61/73/51
f 61/73/51 40/48/52 38/45/49
f 62/74/53 42/51/16 65/77/54
f 66/78/55 62/74/55 65/77/56
f 127/144/10 35/42/57 34/41/46
f 69/81/58 67/79/11 68/80/59
f 69/81/58 36/43/14 67/79/11
f 11/13/60 12/14/61 70/82/17
f 1/1/25 2/3/28 26/32/23
f 77/89/62 90/104/63 79/91/20
f 92/107/64 83/96/35 84/97/37
f 80/92/65 82/94/66 88/102/67
f 94/109/68 95/111/69 83/95/70
f 118/135/71 103/120/55 119/136/72
f 89/103/73 17/21/74 90/104/63
f 92/107/64 18/22/75 88/101/67
f 18/22/75 92/107/64 91/105/76
f 98/115/77 17/21/74 18/23/75
f 99/116/78 18/23/75 17/21/74
f 117/134/79 103/120/80 104/121/81
f 106/123/82 116/133/7 105/122/83
f 115/132/8 113/130/84 114/131/9
f 121/138/85 108/125/55 120/137/86
f 123/140/5 110/127/55 122/139/87
f 43/52/3 49/60/2 39/46/88
f 43/52/3 39/46/88 41/49/89
f 56/68/90 64/76/91 61/73/51
f 56/68/90 44/54/15 62/74/53
f 95/112/69 93/108/92 28/35/93
f 93/108/92 83/96/94 28/35/93
f 17/21/74 101/118/95 90/104/63
f 101/118/95 91/106/76 90/104/63
f 102/119/96 17/21/74 88/102/67
f 18/23/75 102/119/96 88/102/67
f 119/136/97 108/125/98 74/86/99
f 104/121/100 96/113/101 107/124/102
f 10/12/103 106/123/104 71/83/19
f 122/139/105 105/122/106 114/131/107
f 120/137/108 103/120/80 111/128/109
f 107/124/110 124/141/111 104/121/112
f 124/141/111 112/129/113 117/134/114
f 125/142/6 106/123/104 109/126/4
f 111/128/115 117/134/114 112/129/113
f 116/133/7 113/130/84 115/132/8
f 106/123/104 125/142/6 113/130/116
f 40/48/52 65/77/54 42/51/16
f 127/144/10 37/44/13 35/42/57
f 9/11/117 14/17/118 10/12/103
f 14/17/118 78/90/119 77/89/62
f 11/13/60 14/17/118 15/18/22
f 15/18/22 77/89/62 79/91/20
f 8/10/31 70/82/17 12/14/61
f 12/14/61 15/18/22 16/19/21
f 20/25/120 23/29/121 24/30/122
f 87/100/123 88/102/67 17/21/74
f 20/25/120 25/31/24 21/26/124
f 21/26/124 26/32/23 22/27/36
f 26/33/27 28/35/33 22/28/36
f 12/15/29 28/35/33 29/36/32
f 23/29/121 30/37/125 31/38/126
f 89/103/73 87/100/123 17/21/74
f 30/37/125 33/40/127 31/38/126
f 32/39/128 9/11/117 33/40/127
f 1/1/39 46/57/42 4/5/40
f 5/6/26 49/60/2 7/8/30
f 50/61/129 47/58/130 1/1/25
f 4/5/40 46/57/42 52/63/131
f 2/2/28 126/143/48 5/6/26
f 59/71/132 48/59/38 60/72/45
f 7/8/30 49/60/2 8/9/31
f 50/61/129 57/69/41 47/58/130
f 46/57/42 58/70/133 52/63/131
f 46/57/42 57/69/41 58/70/133
f 51/62/134 34/41/46 35/42/57
f 3/4/135 69/81/58 68/80/59
f 53/64/136 36/43/14 52/63/131
f 55/67/47 38/45/49 39/47/88
f 53/64/137 57/69/41 51/62/134
f 49/60/2 55/66/47 39/46/88
f 45/56/1 44/54/15 63/75/138
f 50/61/129 51/62/134 57/69/41
f 58/70/133 53/64/136 52/63/131
f 59/71/132 63/75/138 54/65/50
f 2/3/28 54/65/50 55/67/47
f 63/75/138 8/10/31 45/56/1
f 126/143/48 55/66/47 49/60/2
f 39/47/88 40/48/52 41/50/89
f 49/60/2 45/55/1 8/9/31
f 35/42/57 37/44/13 51/62/134
f 37/44/13 53/64/137 51/62/134
f 56/68/90 54/65/50 63/75/138
f 68/80/59 50/61/129 3/4/135
f 44/54/15 45/56/1 43/53/3
f 61/73/51 66/78/139 40/48/52
f 62/74/53 44/54/15 42/51/16
f 66/78/55 61/73/140 62/74/55
f 69/81/58 52/63/131 36/43/14
f 68/80/59 67/79/11 34/41/46
f 73/85/141 10/12/103 71/83/19
f 24/30/122 75/87/142 74/86/99
f 31/38/126 75/87/142 23/29/121
f 31/38/126 72/84/143 76/88/144
f 33/40/127 73/85/141 72/84/143
f 6/7/145 73/85/141 52/63/131
f 5/6/26 29/36/32 27/34/34
f 5/6/26 27/34/34 26/33/27
f 73/85/141 4/5/40 52/63/131
f 12/15/29 29/36/32 7/8/30
f 75/87/142 1/1/25 74/86/99
f 75/87/142 3/4/135 50/61/129
f 76/88/144 6/7/145 3/4/135
f 20/25/120 81/93/146 19/24/147
f 21/26/124 80/92/65 20/25/120
f 81/93/146 30/37/125 19/24/147
f 82/94/66 21/26/124 22/27/36
f 85/98/148 32/39/128 30/37/125
f 78/90/119 32/39/128 86/99/149
f 77/89/62 89/103/73 90/104/63
f 91/106/76 79/91/20 90/104/63
f 22/28/36 92/107/64 88/101/67
f 92/107/64 16/20/21 91/105/76
f 87/100/123 80/92/65 88/102/67
f 87/100/123 86/99/149 85/98/148
f 82/94/66 22/27/36 88/102/67
f 85/98/148 81/93/146 87/100/123
f 118/135/150 74/86/151 96/113/152
f 89/103/73 78/90/119 86/99/149
f 83/96/35 95/112/153 84/97/37
f 1/1/25 96/113/154 74/86/99
f 25/31/24 96/113/154 1/1/25
f 107/124/155 24/30/122 108/125/156
f 118/135/71 104/121/100 103/120/55
f 10/12/103 110/127/157 109/126/158
f 11/13/60 105/122/159 110/127/160
f 98/115/77 91/106/76 97/114/161
f 98/115/77 97/114/161 17/21/74
f 71/83/19 105/122/162 70/82/17
f 17/21/74 100/117/163 99/116/78
f 99/116/78 100/117/163 18/23/75
f 124/141/111 120/137/164 111/128/115
f 122/139/165 125/142/6 123/140/165
f 121/138/85 107/124/110 108/125/55
f 123/140/5 109/126/4 110/127/55
f 114/131/166 113/130/116 125/142/6
f 42/51/16 43/53/3 41/50/89
f 61/73/51 54/65/50 56/68/90
f 64/76/91 62/74/55 61/73/51
f 56/68/90 63/75/138 44/54/15
f 62/74/53 64/76/91 56/68/90
f 28/35/93 84/97/167 95/112/69
f 95/112/69 94/110/68 93/108/92
f 93/108/92 94/110/68 83/96/94
f 17/21/74 97/114/161 101/118/95
f 101/118/95 97/114/161 91/106/76
f 102/119/96 100/117/163 17/21/74
f 18/23/75 100/117/163 102/119/96
f 108/125/98 24/30/122 74/86/99
f 119/136/97 103/120/168 108/125/98
f 96/113/101 25/31/169 107/124/102
f 104/121/100 118/135/71 96/113/101
f 10/12/103 109/126/4 106/123/104
f 105/122/106 116/133/170 114/131/107
f 122/139/105 110/127/171 105/122/106
f 103/120/80 117/134/79 111/128/109
f 120/137/108 108/125/172 103/120/80
f 124/141/111 117/134/114 104/121/112
f 107/124/110 121/138/85 124/141/111
f 124/141/111 111/128/115 112/129/113
f 116/133/7 106/123/82 113/130/84
f 42/51/16 41/50/89 40/48/52
f 40/48/52 66/78/139 65/77/54
f 127/144/10 128/145/12 37/44/13
f 9/11/117 13/16/173 14/17/118
f 14/17/118 13/16/173 78/90/119
f 11/13/60 10/12/103 14/17/118
f 15/18/22 14/17/118 77/89/62
f 8/10/31 4/5/18 70/82/17
f 12/14/61 11/13/60 15/18/22
f 20/25/120 19/24/147 23/29/121
f 20/25/120 24/30/122 25/31/24
f 21/26/124 25/31/24 26/32/23
f 26/33/27 27/34/34 28/35/33
f 12/15/29 16/20/21 28/35/33
f 23/29/121 19/24/147 30/37/125
f 30/37/125 32/39/128 33/40/127
f 32/39/128 13/16/173 9/11/117
f 1/1/39 47/58/43 46/57/42
f 5/6/26 126/143/48 49/60/2
f 59/71/132 1/1/39 48/59/38
f 51/62/134 50/61/129 34/41/46
f 3/4/135 6/7/145 69/81/58
f 53/64/136 37/44/13 36/43/14
f 55/67/47 54/65/50 38/45/49
f 53/64/137 58/70/133 57/69/41
f 59/71/132 60/72/45 63/75/138
f 2/3/28 59/71/44 54/65/50
f 63/75/138 60/72/45 8/10/31
f 39/47/88 38/45/49 40/48/52
f 68/80/59 34/41/46 50/61/129
f 69/81/58 6/7/145 52/63/131
f 73/85/141 9/11/117 10/12/103
f 24/30/122 23/29/121 75/87/142
f 31/38/126 76/88/144 75/87/142
f 31/38/126 33/40/127 72/84/143
f 33/40/127 9/11/117 73/85/141
f 6/7/145 72/84/143 73/85/141
f 5/6/26 7/8/30 29/36/32
f 73/85/141 71/83/19 4/5/40
f 75/87/142 50/61/129 1/1/25
f 75/87/142 76/88/144 3/4/135
f 76/88/144 72/84/143 6/7/145
f 20/25/120 80/92/65 81/93/146
f 21/26/124 82/94/66 80/92/65
f 81/93/146 85/98/148 30/37/125
f 85/98/148 86/99/149 32/39/128
f 78/90/119 13/16/173 32/39/128
f 77/89/62 78/90/119 89/103/73
f 91/106/76 16/19/21 79/91/20
f 22/28/36 83/96/35 92/107/64
f 92/107/64 84/97/37 16/20/21
f 87/100/123 81/93/146 80/92/65
f 87/100/123 89/103/73 86/99/149
f 118/135/150 119/136/174 74/86/151
f 107/124/155 25/31/24 24/30/122
f 10/12/103 11/13/60 110/127/157
f 11/13/60 70/82/17 105/122/159
f 98/115/77 18/23/75 91/106/76
f 71/83/19 106/123/104 105/122/162
f 124/141/111 121/138/164 120/137/164
f 122/139/165 114/131/166 125/142/6
